<svg width="140" height="140" viewBox="0 0 140 140" fill="none" xmlns="http://www.w3.org/2000/svg">
<rect width="140" height="140" fill="#1F1E1E"/>
<path d="M112.272 97.4989C112.272 99.5418 110.617 101.198 108.577 101.198H30.9666C28.926 101.198 27.2717 99.5418 27.2717 97.4989V42.7027C27.2717 40.6598 28.926 39.0037 30.9666 39.0037H35.2077C36.5669 39.0037 37.8069 39.7436 38.3613 40.9861C40.5134 45.8093 45.6334 59.1908 46.2322 78.4527C46.2957 80.4946 47.9439 82.1586 49.9846 82.1586H89.5589C91.5995 82.1586 93.2477 80.4946 93.3112 78.4527C93.91 59.1908 99.03 45.8093 101.182 40.9861C101.737 39.7436 102.977 39.0037 104.336 39.0037H108.577C110.617 39.0037 112.272 40.6598 112.272 42.7027V97.4989Z" fill="#FFBD60"/>
</svg>
